<!DOCTYPE svg PUBLIC "-//W3C//DTD SVG 1.1//EN" "http://www.w3.org/Graphics/SVG/1.1/DTD/svg11.dtd">
<!-- Uploaded to: SVG Repo, www.svgrepo.com, Transformed by: SVG Repo Mixer Tools -->
<svg fill="#ffffff" version="1.1" id="Capa_1" xmlns="http://www.w3.org/2000/svg" xmlns:xlink="http://www.w3.org/1999/xlink" width="800px" height="800px" viewBox="0 0 561.054 561.054" xml:space="preserve" stroke="#ffffff">
<g id="SVGRepo_bgCarrier" stroke-width="0"/>
<g id="SVGRepo_tracerCarrier" stroke-linecap="round" stroke-linejoin="round"/>
<g id="SVGRepo_iconCarrier"> <g> <g> <path d="M392.29,529.947c1.572-5.769,1.965-11.875,0.75-17.965c-3.285-16.394-16.446-28.537-32.036-30.27 c-0.107-0.035-0.144-0.125-0.286-0.143c-17.286-2.5-65.359-32.18-73.27-39.858c-0.474-0.482,90.502-119.575,90.502-119.575 L268.5,416.264l-122.933-88.038c0,0,108.968,111.253,110.87,116.86c-9.75,23.572-44.662,36.573-68.672,37.823 c-0.089,0.018-0.071,0.125-0.143,0.16c-18.322,0.875-33.046,17.911-33.046,38.912c0,21.537,15.474,39.072,34.475,39.072 c11.679,0,22.581-8.09,32.385-16.322c2.482-10.035,2.062-14.464,2.062-22.768c0-5.43-0.982-10.59-2.759-15.287 c-2.911-11.66,48.805-49.608,54.091-53.09c26.475,16.25,59.564,25.679,51.35,47.055c0.036,0,0.125,0,0.161,0.018 c-4,7.715-5.411,16.59-3.625,25.394c3.536,17.716,18.608,30.608,35.823,30.608c2.25,0,4.535-0.215,6.731-0.679 c8.019-1.606,14.929-6.036,20.091-12.429c3.481,0.785,8.285,2.429,11.643,5.785c12.072,12.965,23.572,3.537,26.215,0 C425.719,545.983,398.183,543.144,392.29,529.947z M189.033,549.25c-12.509,0-22.679-12.232-22.679-27.286 c0-15.055,10.17-27.287,22.679-27.287c4.134,0,7.974,1.447,11.313,3.786c0.696,0.536,1.375,1.089,2.071,1.589 c5.616,4.982,9.304,12.912,9.304,21.93C211.722,537.018,201.542,549.25,189.033,549.25z M268.652,440.123 c-4.134,0-7.482-3.34-7.482-7.465c0-4.143,3.366-7.482,7.482-7.482s7.456,3.34,7.456,7.482 C276.107,436.783,272.768,440.123,268.652,440.123z M378.093,533.768c-3.519,5.625-8.876,9.411-15.126,10.644 c-1.464,0.303-2.928,0.445-4.428,0.445c-11.608,0-21.822-8.875-24.252-21.125c-1.393-6.857-0.178-13.786,3.411-19.5 c3.519-5.607,8.876-9.394,15.126-10.645c1.464-0.285,2.964-0.445,4.428-0.445c11.626,0,21.822,8.893,24.287,21.143 C382.862,521.142,381.647,528.054,378.093,533.768z"/> <path d="M410.041,206.632c-11.036-56.064-107.183-89.253-129.504-47.234c-22.313-42.037-118.441-8.849-129.504,47.234 c-14.447,58.591-90.869,74.743-133.326,44.162c0,66.234,71.333,67.092,115.477,71.342 c104.566-4.572,137.603-52.797,147.335-74.815c9.724,22.037,42.769,70.243,147.344,74.815 c44.144-4.25,115.485-5.107,115.485-71.342C500.883,281.375,424.469,265.223,410.041,206.632z"/> <path d="M275.875,127.951V45.296h18.661v82.654h141.326L455.292,0H294.537v28.305h-18.661V0H112.522l22.286,127.951H275.875z M321.716,27.171h101.968l-11.161,73.601h-90.789V27.171H321.716z M248.696,27.171v73.601h-91.047l-12.813-73.601H248.696z"/> </g> </g> </g>
</svg>